<mxfile host="app.diagrams.net" agent="Mozilla/5.0 (Windows NT 10.0; Win64; x64) AppleWebKit/537.36 (KHTML, like Gecko) Chrome/136.0.0.0 Safari/537.36" version="27.0.6">
  <diagram name="第 1 页" id="gqqKk3qTcgub9rRtaCZt">
    <mxGraphModel dx="983" dy="559" grid="1" gridSize="10" guides="1" tooltips="1" connect="1" arrows="1" fold="1" page="1" pageScale="1" pageWidth="1654" pageHeight="2336" math="0" shadow="0">
      <root>
        <mxCell id="0" />
        <mxCell id="1" parent="0" />
        <mxCell id="4dHtgB9EU4_9vMUrs-2n-10" style="edgeStyle=none;rounded=0;orthogonalLoop=1;jettySize=auto;html=1;" parent="1" source="4dHtgB9EU4_9vMUrs-2n-1" target="4dHtgB9EU4_9vMUrs-2n-3" edge="1">
          <mxGeometry relative="1" as="geometry" />
        </mxCell>
        <mxCell id="4dHtgB9EU4_9vMUrs-2n-1" value="路由器" style="rounded=0;whiteSpace=wrap;html=1;fillColor=light-dark(#4672c4, #198cc4);fontColor=#ffffff;strokeColor=light-dark(#4672c4, #51afe7);" parent="1" vertex="1">
          <mxGeometry x="720" y="400" width="120" height="80" as="geometry" />
        </mxCell>
        <mxCell id="4dHtgB9EU4_9vMUrs-2n-11" style="edgeStyle=none;rounded=0;orthogonalLoop=1;jettySize=auto;html=1;entryX=0.5;entryY=0;entryDx=0;entryDy=0;" parent="1" source="4dHtgB9EU4_9vMUrs-2n-3" target="4dHtgB9EU4_9vMUrs-2n-5" edge="1">
          <mxGeometry relative="1" as="geometry" />
        </mxCell>
        <mxCell id="4dHtgB9EU4_9vMUrs-2n-12" style="edgeStyle=none;rounded=0;orthogonalLoop=1;jettySize=auto;html=1;exitX=1;exitY=0.5;exitDx=0;exitDy=0;entryX=0;entryY=0.5;entryDx=0;entryDy=0;" parent="1" source="4dHtgB9EU4_9vMUrs-2n-3" target="4dHtgB9EU4_9vMUrs-2n-6" edge="1">
          <mxGeometry relative="1" as="geometry" />
        </mxCell>
        <mxCell id="4dHtgB9EU4_9vMUrs-2n-14" style="edgeStyle=elbowEdgeStyle;rounded=0;orthogonalLoop=1;jettySize=auto;elbow=vertical;html=1;" parent="1" source="4dHtgB9EU4_9vMUrs-2n-3" target="4dHtgB9EU4_9vMUrs-2n-9" edge="1">
          <mxGeometry relative="1" as="geometry">
            <Array as="points">
              <mxPoint x="620" y="840" />
            </Array>
          </mxGeometry>
        </mxCell>
        <mxCell id="4dHtgB9EU4_9vMUrs-2n-15" style="edgeStyle=elbowEdgeStyle;rounded=0;orthogonalLoop=1;jettySize=auto;elbow=vertical;html=1;" parent="1" source="4dHtgB9EU4_9vMUrs-2n-3" target="4dHtgB9EU4_9vMUrs-2n-7" edge="1">
          <mxGeometry relative="1" as="geometry">
            <Array as="points">
              <mxPoint x="850" y="840" />
            </Array>
          </mxGeometry>
        </mxCell>
        <mxCell id="4dHtgB9EU4_9vMUrs-2n-16" style="edgeStyle=elbowEdgeStyle;rounded=0;orthogonalLoop=1;jettySize=auto;elbow=vertical;html=1;" parent="1" source="4dHtgB9EU4_9vMUrs-2n-3" target="4dHtgB9EU4_9vMUrs-2n-8" edge="1">
          <mxGeometry relative="1" as="geometry">
            <Array as="points">
              <mxPoint x="940" y="840" />
            </Array>
          </mxGeometry>
        </mxCell>
        <mxCell id="4dHtgB9EU4_9vMUrs-2n-17" style="edgeStyle=elbowEdgeStyle;rounded=0;orthogonalLoop=1;jettySize=auto;elbow=vertical;html=1;" parent="1" source="4dHtgB9EU4_9vMUrs-2n-3" target="4dHtgB9EU4_9vMUrs-2n-4" edge="1">
          <mxGeometry relative="1" as="geometry">
            <Array as="points">
              <mxPoint x="700" y="840" />
            </Array>
          </mxGeometry>
        </mxCell>
        <mxCell id="iFqaNt7PIBtj8i7AnsgW-19" style="edgeStyle=elbowEdgeStyle;rounded=0;orthogonalLoop=1;jettySize=auto;elbow=vertical;html=1;" edge="1" parent="1" source="4dHtgB9EU4_9vMUrs-2n-3" target="iFqaNt7PIBtj8i7AnsgW-6">
          <mxGeometry relative="1" as="geometry" />
        </mxCell>
        <mxCell id="4dHtgB9EU4_9vMUrs-2n-3" value="交换机" style="rounded=0;whiteSpace=wrap;html=1;fillColor=light-dark(#4672c4, #198cc4);fontColor=#ffffff;strokeColor=light-dark(#4672c4, #51afe7);" parent="1" vertex="1">
          <mxGeometry x="720" y="520" width="120" height="80" as="geometry" />
        </mxCell>
        <mxCell id="4dHtgB9EU4_9vMUrs-2n-4" value="禅道&lt;br&gt;项目管理平台" style="rounded=0;whiteSpace=wrap;html=1;fillColor=light-dark(#4672c4, #198cc4);fontColor=#ffffff;strokeColor=light-dark(#4672c4, #51afe7);" parent="1" vertex="1">
          <mxGeometry x="560" y="920" width="120" height="80" as="geometry" />
        </mxCell>
        <mxCell id="4dHtgB9EU4_9vMUrs-2n-5" value="GItlab Server&lt;div&gt;代码管理平台&lt;/div&gt;" style="rounded=0;whiteSpace=wrap;html=1;fillColor=light-dark(#4672c4, #198cc4);fontColor=#ffffff;strokeColor=light-dark(#4672c4, #51afe7);" parent="1" vertex="1">
          <mxGeometry x="720" y="920" width="120" height="80" as="geometry" />
        </mxCell>
        <mxCell id="4dHtgB9EU4_9vMUrs-2n-6" value="Bind&lt;div&gt;内网域名解析如软件&lt;/div&gt;" style="rounded=0;whiteSpace=wrap;html=1;fillColor=light-dark(#4672c4, #198cc4);fontColor=#ffffff;strokeColor=light-dark(#4672c4, #51afe7);" parent="1" vertex="1">
          <mxGeometry x="880" y="520" width="120" height="80" as="geometry" />
        </mxCell>
        <mxCell id="4dHtgB9EU4_9vMUrs-2n-7" value="&lt;div&gt;Jenkins Server&lt;/div&gt;自动化构建部署平台" style="rounded=0;whiteSpace=wrap;html=1;fillColor=light-dark(#4672c4, #198cc4);fontColor=#ffffff;strokeColor=light-dark(#4672c4, #51afe7);" parent="1" vertex="1">
          <mxGeometry x="880" y="920" width="120" height="80" as="geometry" />
        </mxCell>
        <mxCell id="4dHtgB9EU4_9vMUrs-2n-8" value="内网云盘&lt;div&gt;发布/归档&lt;/div&gt;" style="rounded=0;whiteSpace=wrap;html=1;fillColor=light-dark(#4672c4, #198cc4);fontColor=#ffffff;strokeColor=light-dark(#4672c4, #51afe7);" parent="1" vertex="1">
          <mxGeometry x="1040" y="920" width="120" height="80" as="geometry" />
        </mxCell>
        <mxCell id="4dHtgB9EU4_9vMUrs-2n-9" value="编译服务器&lt;br&gt;公共编译服务器" style="rounded=0;whiteSpace=wrap;html=1;fillColor=light-dark(#4672c4, #198cc4);fontColor=#ffffff;strokeColor=light-dark(#4672c4, #51afe7);" parent="1" vertex="1">
          <mxGeometry x="400" y="920" width="120" height="80" as="geometry" />
        </mxCell>
        <mxCell id="iFqaNt7PIBtj8i7AnsgW-6" value="Keycloak&lt;div&gt;身份认证&lt;/div&gt;&lt;div&gt;管理&lt;/div&gt;" style="rounded=0;whiteSpace=wrap;html=1;fillColor=light-dark(#4672c4, #198cc4);fontColor=#ffffff;strokeColor=light-dark(#4672c4, #51afe7);" vertex="1" parent="1">
          <mxGeometry x="880" y="680" width="120" height="80" as="geometry" />
        </mxCell>
      </root>
    </mxGraphModel>
  </diagram>
</mxfile>
